<svg id="visual" viewBox="0 0 1140 1347" width="1140" height="1347"
    xmlns="http://www.w3.org/2000/svg" xmlns:xlink="http://www.w3.org/1999/xlink" version="1.1">
    <rect width="1140" height="1347" fill="#253528"></rect>
    <g>
        <g transform="translate(571 1275)">
            <path
                d="M92.9 -84.8C117.7 -68.1 133.3 -34 134 0.7C134.6 35.4 120.4 70.8 95.6 89.7C70.8 108.6 35.4 111 2 109.1C-31.4 107.1 -62.8 100.6 -83.3 81.7C-103.9 62.8 -113.5 31.4 -109.6 3.9C-105.7 -23.6 -88.2 -47.2 -67.7 -63.9C-47.2 -80.6 -23.6 -90.4 5.2 -95.7C34 -100.9 68.1 -101.5 92.9 -84.8Z"
                fill="none" stroke="#89212A" stroke-width="31"></path>
        </g>
        <g transform="translate(1130 694)">
            <path
                d="M78.7 -79.8C98.9 -58.4 110.3 -29.2 110.7 0.4C111.1 29.9 100.4 59.8 80.1 78.6C59.8 97.4 29.9 105.1 3.5 101.5C-22.9 98 -45.7 83.3 -66.8 64.5C-87.9 45.7 -107.2 22.9 -105.9 1.2C-104.7 -20.4 -82.9 -40.8 -61.8 -62.2C-40.8 -83.6 -20.4 -106 4.4 -110.4C29.2 -114.8 58.4 -101.2 78.7 -79.8Z"
                fill="none" stroke="#89212A" stroke-width="31"></path>
        </g>
        <g transform="translate(164 550)">
            <path
                d="M78.1 -75.3C95.9 -60.3 101.4 -30.1 99.2 -2.2C97 25.7 87 51.4 69.2 73.8C51.4 96.1 25.7 115.1 0.3 114.8C-25 114.5 -50.1 94.8 -71.5 72.4C-92.9 50.1 -110.6 25 -111.9 -1.3C-113.2 -27.7 -98.1 -55.3 -76.7 -70.3C-55.3 -85.4 -27.7 -87.7 1.2 -89C30.1 -90.2 60.3 -90.3 78.1 -75.3Z"
                fill="none" stroke="#89212A" stroke-width="31"></path>
        </g>
        <g transform="translate(294 1069)">
            <path
                d="M53 -51.9C66.5 -39.4 74 -19.7 73.4 -0.5C72.9 18.6 64.4 37.2 50.8 52.4C37.2 67.6 18.6 79.3 -1.2 80.6C-21.1 81.8 -42.2 72.6 -54.2 57.4C-66.2 42.2 -69.1 21.1 -69.2 -0.1C-69.2 -21.3 -66.5 -42.5 -54.5 -54.9C-42.5 -67.4 -21.3 -71 -0.8 -70.2C19.7 -69.5 39.4 -64.3 53 -51.9Z"
                stroke="#89212A" fill="none" stroke-width="31"></path>
        </g>
        <g transform="translate(2 1278)">
            <path
                d="M57.5 -58.5C73.3 -41.8 83.8 -20.9 86.7 2.9C89.6 26.7 84.8 53.3 69 66.9C53.3 80.4 26.7 80.9 2 78.9C-22.6 76.8 -45.1 72.3 -63.1 58.7C-81 45.1 -94.3 22.6 -94.2 0.2C-94 -22.3 -80.4 -44.5 -62.5 -61.3C-44.5 -78 -22.3 -89.2 -0.7 -88.5C20.9 -87.9 41.8 -75.3 57.5 -58.5Z"
                stroke="#89212A" fill="none" stroke-width="31"></path>
        </g>
        <g transform="translate(390 162)">
            <path
                d="M47.3 -48C57 -37.6 57.6 -18.8 54.5 -3.1C51.4 12.6 44.6 25.2 34.9 37.5C25.2 49.7 12.6 61.6 -1.3 62.9C-15.3 64.2 -30.5 55 -40.8 42.8C-51.1 30.5 -56.4 15.3 -58.4 -2C-60.5 -19.3 -59.2 -38.6 -48.9 -48.9C-38.6 -59.3 -19.3 -60.6 -0.2 -60.4C18.8 -60.1 37.6 -58.3 47.3 -48Z"
                stroke="#89212A" fill="none" stroke-width="31"></path>
        </g>
        <g transform="translate(913 13)">
            <path
                d="M63.3 -58.8C79.6 -46.9 89 -23.4 89.6 0.7C90.3 24.7 82.2 49.5 65.9 62.7C49.5 75.8 24.7 77.4 3.4 74C-18 70.7 -36 62.3 -48 49.2C-60.1 36 -66.2 18 -67.8 -1.6C-69.3 -21.1 -66.4 -42.2 -54.3 -54.1C-42.2 -66 -21.1 -68.7 1.2 -69.9C23.4 -71 46.9 -70.7 63.3 -58.8Z"
                stroke="#89212A" fill="none" stroke-width="31"></path>
        </g>
        <g transform="translate(15 40)">
            <path
                d="M56.3 -59C71.2 -41.5 80.2 -20.7 85.3 5.1C90.4 30.9 91.6 61.9 76.7 82.1C61.9 102.4 30.9 112 0.4 111.7C-30.2 111.3 -60.4 100.9 -78.6 80.6C-96.9 60.4 -103.2 30.2 -100.6 2.7C-97.9 -24.9 -86.2 -49.7 -68 -67.2C-49.7 -84.7 -24.9 -94.9 -2.1 -92.8C20.7 -90.8 41.5 -76.5 56.3 -59Z"
                stroke="#89212A" fill="none" stroke-width="31">
            </path>
        </g>
    </g>
</svg>